<svg width="48" height="48" viewBox="0 0 48 48" fill="none" xmlns="http://www.w3.org/2000/svg">
<rect width="48" height="48" rx="6" fill="white"/>
<rect x="2" y="3" width="35" height="30" rx="4" fill="#00658F"/>
<rect x="21" y="35" width="25" height="10" rx="5" fill="#B50077"/>
<rect x="24" y="38" width="14" height="4" rx="2" fill="#FFD8E8"/>
<rect x="39" y="38" width="4" height="4" rx="2" fill="#FFE24C"/>
<path d="M39 7C39 4.79086 40.7909 3 43 3H46V33H43C40.7909 33 39 31.2091 39 29V7Z" fill="#FFD8E8"/>
<path d="M8.376 17.304C7.32 17.304 6.42933 17.1387 5.704 16.808C4.97867 16.4667 4.42933 16.008 4.056 15.432C3.68267 14.8453 3.496 14.1733 3.496 13.416H6.04C6.04 13.7147 6.12 13.992 6.28 14.248C6.45067 14.504 6.70667 14.712 7.048 14.872C7.38933 15.0213 7.832 15.096 8.376 15.096C8.86667 15.096 9.27733 15.032 9.608 14.904C9.93867 14.776 10.1893 14.6 10.36 14.376C10.5307 14.1413 10.616 13.8747 10.616 13.576C10.616 13.2027 10.456 12.9093 10.136 12.696C9.816 12.472 9.29867 12.328 8.584 12.264L7.704 12.184C6.54133 12.088 5.61333 11.7253 4.92 11.096C4.22667 10.4667 3.88 9.63467 3.88 8.6C3.88 7.85333 4.056 7.208 4.408 6.664C4.77067 6.12 5.272 5.704 5.912 5.416C6.552 5.11733 7.30933 4.968 8.184 4.968C9.10133 4.968 9.88533 5.128 10.536 5.448C11.1973 5.75733 11.704 6.2 12.056 6.776C12.408 7.34133 12.584 8.008 12.584 8.776H10.024C10.024 8.488 9.95467 8.22667 9.816 7.992C9.67733 7.74667 9.46933 7.54933 9.192 7.4C8.92533 7.25067 8.58933 7.176 8.184 7.176C7.8 7.176 7.47467 7.24 7.208 7.368C6.952 7.496 6.76 7.672 6.632 7.896C6.504 8.10933 6.44 8.344 6.44 8.6C6.44 8.93067 6.55733 9.21867 6.792 9.464C7.02667 9.70933 7.41067 9.85333 7.944 9.896L8.84 9.976C9.69333 10.0507 10.4453 10.2373 11.096 10.536C11.7467 10.824 12.2533 11.224 12.616 11.736C12.9893 12.2373 13.176 12.8507 13.176 13.576C13.176 14.3227 12.9787 14.9787 12.584 15.544C12.2 16.0987 11.6507 16.5307 10.936 16.84C10.2213 17.1493 9.368 17.304 8.376 17.304ZM21.6239 17L17.5919 11.544H15.9759L20.8719 5.32H23.8799L19.4799 10.904L19.4479 9.768L24.7919 17H21.6239ZM13.9439 17V5.32H16.5679V17H13.9439Z" fill="white"/>
<path d="M30.2951 17.304C29.2391 17.304 28.3325 17.1227 27.5751 16.76C26.8178 16.3867 26.1991 15.9013 25.7191 15.304C25.2391 14.696 24.8818 14.0453 24.6471 13.352C24.4231 12.648 24.3111 11.9653 24.3111 11.304V10.952C24.3111 10.2267 24.4285 9.512 24.6631 8.808C24.8978 8.09333 25.2551 7.448 25.7351 6.872C26.2258 6.296 26.8391 5.83733 27.5751 5.496C28.3218 5.144 29.2018 4.968 30.2151 4.968C31.2711 4.968 32.2045 5.16533 33.0151 5.56C33.8258 5.95467 34.4711 6.504 34.9511 7.208C35.4418 7.90133 35.7298 8.71733 35.8151 9.656H33.1751C33.1005 9.18667 32.9298 8.78667 32.6631 8.456C32.3965 8.12533 32.0498 7.86933 31.6231 7.688C31.2071 7.50667 30.7378 7.416 30.2151 7.416C29.6925 7.416 29.2285 7.50667 28.8231 7.688C28.4178 7.86933 28.0765 8.12533 27.7991 8.456C27.5325 8.78667 27.3245 9.18133 27.1751 9.64C27.0365 10.088 26.9671 10.5893 26.9671 11.144C26.9671 11.688 27.0365 12.1893 27.1751 12.648C27.3245 13.096 27.5378 13.4907 27.8151 13.832C28.1031 14.1627 28.4551 14.4187 28.8711 14.6C29.2871 14.7707 29.7618 14.856 30.2951 14.856C31.1058 14.856 31.7885 14.6587 32.3431 14.264C32.9085 13.8693 33.2498 13.3253 33.3671 12.632H35.9911C35.8951 13.4853 35.6071 14.2693 35.1271 14.984C34.6578 15.688 34.0125 16.2533 33.1911 16.68C32.3805 17.096 31.4151 17.304 30.2951 17.304Z" fill="#C5E7FF"/>
</svg>
